<mxfile host="app.diagrams.net" modified="2020-11-30T20:43:20.155Z" agent="5.0 (X11)" etag="q5MFGG4IKcguoaI_8zDz" version="13.10.4" type="github">
  <diagram id="9rsBlX-5gMdONja04OOe" name="Page-1">
    <mxGraphModel dx="1876" dy="849" grid="1" gridSize="10" guides="1" tooltips="1" connect="1" arrows="1" fold="1" page="1" pageScale="1" pageWidth="850" pageHeight="1100" background="#182E3E" math="0" shadow="0">
      <root>
        <mxCell id="0" />
        <mxCell id="1" parent="0" />
        <mxCell id="gVZcGl50JLNuwfcv-XaQ-9" value="&lt;font style=&quot;font-size: 20px&quot;&gt;a&lt;/font&gt;" style="edgeStyle=orthogonalEdgeStyle;orthogonalLoop=1;jettySize=auto;html=1;strokeWidth=2;labelBackgroundColor=#182E3E;strokeColor=#FFFFFF;fontColor=#FFFFFF;" edge="1" parent="1" source="gVZcGl50JLNuwfcv-XaQ-1" target="gVZcGl50JLNuwfcv-XaQ-2">
          <mxGeometry y="10" relative="1" as="geometry">
            <mxPoint as="offset" />
          </mxGeometry>
        </mxCell>
        <mxCell id="gVZcGl50JLNuwfcv-XaQ-1" value="&lt;font style=&quot;font-size: 30px&quot;&gt;0&lt;/font&gt;" style="ellipse;whiteSpace=wrap;html=1;fillColor=#EEEEEE;strokeColor=#FFFFFF;fontColor=#1A1A1A;" vertex="1" parent="1">
          <mxGeometry x="80" y="320" width="80" height="80" as="geometry" />
        </mxCell>
        <mxCell id="gVZcGl50JLNuwfcv-XaQ-8" value="&lt;font style=&quot;font-size: 20px&quot;&gt;c&lt;/font&gt;" style="edgeStyle=orthogonalEdgeStyle;orthogonalLoop=1;jettySize=auto;html=1;strokeWidth=2;labelBackgroundColor=#182E3E;strokeColor=#FFFFFF;fontColor=#FFFFFF;" edge="1" parent="1" source="gVZcGl50JLNuwfcv-XaQ-2" target="gVZcGl50JLNuwfcv-XaQ-3">
          <mxGeometry y="10" relative="1" as="geometry">
            <mxPoint as="offset" />
          </mxGeometry>
        </mxCell>
        <mxCell id="gVZcGl50JLNuwfcv-XaQ-18" value="&lt;font style=&quot;font-size: 20px&quot;&gt;b&lt;/font&gt;" style="edgeStyle=orthogonalEdgeStyle;curved=1;orthogonalLoop=1;jettySize=auto;html=1;entryX=1;entryY=1;entryDx=0;entryDy=0;strokeWidth=2;labelBackgroundColor=#182E3E;strokeColor=#FFFFFF;fontColor=#FFFFFF;" edge="1" parent="1" source="gVZcGl50JLNuwfcv-XaQ-2" target="gVZcGl50JLNuwfcv-XaQ-1">
          <mxGeometry relative="1" as="geometry">
            <Array as="points">
              <mxPoint x="250" y="420" />
              <mxPoint x="148" y="420" />
            </Array>
          </mxGeometry>
        </mxCell>
        <mxCell id="gVZcGl50JLNuwfcv-XaQ-2" value="&lt;font style=&quot;font-size: 30px&quot;&gt;1&lt;/font&gt;" style="ellipse;whiteSpace=wrap;html=1;fillColor=#EEEEEE;strokeColor=#FFFFFF;fontColor=#1A1A1A;" vertex="1" parent="1">
          <mxGeometry x="240" y="320" width="80" height="80" as="geometry" />
        </mxCell>
        <mxCell id="gVZcGl50JLNuwfcv-XaQ-5" value="&lt;font style=&quot;font-size: 20px&quot;&gt;a&lt;/font&gt;" style="edgeStyle=orthogonalEdgeStyle;orthogonalLoop=1;jettySize=auto;html=1;strokeWidth=2;labelBackgroundColor=#182E3E;strokeColor=#FFFFFF;fontColor=#FFFFFF;" edge="1" parent="1" source="gVZcGl50JLNuwfcv-XaQ-3" target="gVZcGl50JLNuwfcv-XaQ-4">
          <mxGeometry y="10" relative="1" as="geometry">
            <mxPoint as="offset" />
          </mxGeometry>
        </mxCell>
        <mxCell id="gVZcGl50JLNuwfcv-XaQ-19" value="&lt;font style=&quot;font-size: 20px&quot;&gt;b c&lt;/font&gt;" style="edgeStyle=orthogonalEdgeStyle;curved=1;orthogonalLoop=1;jettySize=auto;html=1;exitX=0.5;exitY=1;exitDx=0;exitDy=0;entryX=0.5;entryY=1;entryDx=0;entryDy=0;strokeWidth=2;labelBackgroundColor=#182E3E;strokeColor=#FFFFFF;fontColor=#FFFFFF;" edge="1" parent="1" source="gVZcGl50JLNuwfcv-XaQ-3" target="gVZcGl50JLNuwfcv-XaQ-1">
          <mxGeometry relative="1" as="geometry">
            <Array as="points">
              <mxPoint x="440" y="450" />
              <mxPoint x="120" y="450" />
            </Array>
          </mxGeometry>
        </mxCell>
        <mxCell id="gVZcGl50JLNuwfcv-XaQ-3" value="&lt;font style=&quot;font-size: 30px&quot;&gt;2&lt;/font&gt;" style="ellipse;whiteSpace=wrap;html=1;fillColor=#EEEEEE;strokeColor=#FFFFFF;fontColor=#1A1A1A;" vertex="1" parent="1">
          <mxGeometry x="400" y="320" width="80" height="80" as="geometry" />
        </mxCell>
        <mxCell id="gVZcGl50JLNuwfcv-XaQ-7" value="&lt;font style=&quot;font-size: 20px&quot;&gt;a&lt;/font&gt;" style="edgeStyle=orthogonalEdgeStyle;orthogonalLoop=1;jettySize=auto;html=1;labelBackgroundColor=#182E3E;strokeColor=#FFFFFF;fontColor=#FFFFFF;" edge="1" parent="1" source="gVZcGl50JLNuwfcv-XaQ-4" target="gVZcGl50JLNuwfcv-XaQ-6">
          <mxGeometry y="10" relative="1" as="geometry">
            <mxPoint as="offset" />
          </mxGeometry>
        </mxCell>
        <mxCell id="gVZcGl50JLNuwfcv-XaQ-20" value="&lt;font style=&quot;font-size: 20px&quot;&gt;a&lt;/font&gt;" style="edgeStyle=orthogonalEdgeStyle;curved=1;orthogonalLoop=1;jettySize=auto;html=1;exitX=0.025;exitY=0.288;exitDx=0;exitDy=0;entryX=0.975;entryY=0.288;entryDx=0;entryDy=0;entryPerimeter=0;exitPerimeter=0;strokeWidth=2;labelBackgroundColor=#182E3E;strokeColor=#FFFFFF;fontColor=#FFFFFF;" edge="1" parent="1">
          <mxGeometry y="-10" relative="1" as="geometry">
            <mxPoint x="562" y="344.03999999999985" as="sourcePoint" />
            <mxPoint x="318" y="344.03999999999985" as="targetPoint" />
            <Array as="points">
              <mxPoint x="562" y="280" />
              <mxPoint x="318" y="280" />
            </Array>
            <mxPoint as="offset" />
          </mxGeometry>
        </mxCell>
        <mxCell id="gVZcGl50JLNuwfcv-XaQ-21" value="&lt;font style=&quot;font-size: 20px&quot;&gt;b&lt;/font&gt;" style="edgeStyle=orthogonalEdgeStyle;curved=1;orthogonalLoop=1;jettySize=auto;html=1;exitX=1;exitY=0;exitDx=0;exitDy=0;entryX=0;entryY=0.5;entryDx=0;entryDy=0;strokeWidth=2;labelBackgroundColor=#182E3E;strokeColor=#FFFFFF;fontColor=#FFFFFF;" edge="1" parent="1" source="gVZcGl50JLNuwfcv-XaQ-4" target="gVZcGl50JLNuwfcv-XaQ-1">
          <mxGeometry x="-0.0864" y="-15" relative="1" as="geometry">
            <mxPoint x="170" y="90" as="targetPoint" />
            <Array as="points">
              <mxPoint x="628" y="205" />
              <mxPoint x="50" y="205" />
              <mxPoint x="50" y="360" />
            </Array>
            <mxPoint as="offset" />
          </mxGeometry>
        </mxCell>
        <mxCell id="gVZcGl50JLNuwfcv-XaQ-22" value="" style="edgeStyle=orthogonalEdgeStyle;curved=1;orthogonalLoop=1;jettySize=auto;html=1;strokeWidth=2;labelBackgroundColor=#182E3E;strokeColor=#FFFFFF;fontColor=#FFFFFF;" edge="1" parent="1" source="gVZcGl50JLNuwfcv-XaQ-4" target="gVZcGl50JLNuwfcv-XaQ-6">
          <mxGeometry relative="1" as="geometry" />
        </mxCell>
        <mxCell id="gVZcGl50JLNuwfcv-XaQ-4" value="&lt;font style=&quot;font-size: 30px&quot;&gt;3&lt;/font&gt;" style="ellipse;whiteSpace=wrap;html=1;fillColor=#EEEEEE;strokeColor=#FFFFFF;fontColor=#1A1A1A;" vertex="1" parent="1">
          <mxGeometry x="560" y="320" width="80" height="80" as="geometry" />
        </mxCell>
        <mxCell id="gVZcGl50JLNuwfcv-XaQ-6" value="&lt;div style=&quot;font-size: 30px&quot;&gt;&lt;font style=&quot;font-size: 30px&quot;&gt;4&lt;/font&gt;&lt;/div&gt;" style="ellipse;whiteSpace=wrap;html=1;fillColor=#EEEEEE;strokeColor=#FFFFFF;fontColor=#1A1A1A;" vertex="1" parent="1">
          <mxGeometry x="720" y="320" width="80" height="80" as="geometry" />
        </mxCell>
        <mxCell id="gVZcGl50JLNuwfcv-XaQ-15" value="&lt;font style=&quot;font-size: 20px&quot;&gt;a b c&lt;/font&gt;" style="edgeStyle=orthogonalEdgeStyle;orthogonalLoop=1;jettySize=auto;html=1;exitX=0;exitY=0;exitDx=0;exitDy=0;entryX=1;entryY=0;entryDx=0;entryDy=0;curved=1;strokeWidth=2;labelBackgroundColor=#182E3E;strokeColor=#FFFFFF;fontColor=#FFFFFF;" edge="1" parent="1">
          <mxGeometry x="0.0125" y="10" relative="1" as="geometry">
            <mxPoint x="730.7157287525379" y="331.715728752538" as="sourcePoint" />
            <mxPoint x="787.2842712474619" y="331.715728752538" as="targetPoint" />
            <Array as="points">
              <mxPoint x="731" y="280" />
              <mxPoint x="787" y="280" />
            </Array>
            <mxPoint as="offset" />
          </mxGeometry>
        </mxCell>
        <mxCell id="gVZcGl50JLNuwfcv-XaQ-16" value="&lt;font style=&quot;font-size: 20px&quot;&gt;b c&lt;/font&gt;" style="edgeStyle=orthogonalEdgeStyle;curved=1;orthogonalLoop=1;jettySize=auto;html=1;exitX=0;exitY=0;exitDx=0;exitDy=0;entryX=1;entryY=0;entryDx=0;entryDy=0;strokeWidth=2;labelBackgroundColor=#182E3E;strokeColor=#FFFFFF;fontColor=#FFFFFF;" edge="1" parent="1" source="gVZcGl50JLNuwfcv-XaQ-1" target="gVZcGl50JLNuwfcv-XaQ-1">
          <mxGeometry y="10" relative="1" as="geometry">
            <Array as="points">
              <mxPoint x="92" y="280" />
              <mxPoint x="148" y="280" />
            </Array>
            <mxPoint as="offset" />
          </mxGeometry>
        </mxCell>
        <mxCell id="gVZcGl50JLNuwfcv-XaQ-17" value="&lt;font style=&quot;font-size: 20px&quot;&gt;a&lt;/font&gt;" style="edgeStyle=orthogonalEdgeStyle;curved=1;orthogonalLoop=1;jettySize=auto;html=1;exitX=0;exitY=0;exitDx=0;exitDy=0;entryX=1;entryY=0;entryDx=0;entryDy=0;strokeWidth=2;labelBackgroundColor=#182E3E;strokeColor=#FFFFFF;fontColor=#FFFFFF;" edge="1" parent="1" source="gVZcGl50JLNuwfcv-XaQ-2" target="gVZcGl50JLNuwfcv-XaQ-2">
          <mxGeometry y="10" relative="1" as="geometry">
            <Array as="points">
              <mxPoint x="252" y="280" />
              <mxPoint x="308" y="280" />
            </Array>
            <mxPoint as="offset" />
          </mxGeometry>
        </mxCell>
      </root>
    </mxGraphModel>
  </diagram>
</mxfile>
